<svg width="18" height="18" viewBox="0 0 18 18" fill="none" xmlns="http://www.w3.org/2000/svg">
<path fill-rule="evenodd" clip-rule="evenodd" d="M15 3.75C15 3.55109 14.921 3.36032 14.7803 3.21967C14.6397 3.07902 14.4489 3 14.25 3H3.75C3.55109 3 3.36032 3.07902 3.21967 3.21967C3.07902 3.36032 3 3.55109 3 3.75V4.9395C3.00004 5.1384 3.07909 5.32913 3.21975 5.46975L6.53025 8.78025C6.67091 8.92087 6.74996 9.1116 6.75 9.3105V14.4795C6.74993 14.539 6.76399 14.5976 6.79103 14.6505C6.81807 14.7035 6.8573 14.7492 6.90551 14.784C6.95371 14.8188 7.0095 14.8417 7.06826 14.8506C7.12703 14.8596 7.1871 14.8545 7.2435 14.8358L10.9935 13.5855C11.0681 13.5606 11.1331 13.5129 11.1791 13.4491C11.2251 13.3853 11.2499 13.3087 11.25 13.23V9.3105C11.25 9.1116 11.3291 8.92087 11.4698 8.78025L14.7803 5.46975C14.9209 5.32913 15 5.1384 15 4.9395V3.75Z" fill="#F8F8F8" fill-opacity="0.25"/>
<path d="M3.75005 3.45H14.25V2.55H3.75005V3.45ZM3.45005 4.9395V3.75H2.55005V4.9395H3.45005ZM6.8483 8.46225L3.5378 5.15175L2.9018 5.78775L6.2123 9.09825L6.8483 8.46225ZM6.30005 9.3105V14.4795H7.20005V9.3105H6.30005ZM6.30005 14.4795C6.29999 14.6103 6.33101 14.7392 6.39057 14.8556C6.45012 14.972 6.53649 15.0726 6.64256 15.1491C6.74863 15.2256 6.87136 15.2757 7.00063 15.2954C7.1299 15.3152 7.262 15.3039 7.38605 15.2625L7.10105 14.4083C7.11235 14.4044 7.12439 14.4034 7.13619 14.4051C7.14798 14.4069 7.15918 14.4115 7.16886 14.4184C7.17854 14.4254 7.18642 14.4346 7.19184 14.4452C7.19727 14.4558 7.20008 14.4676 7.20005 14.4795H6.30005ZM7.38605 15.2625L11.136 14.013L10.851 13.1588L7.10105 14.4083L7.38605 15.2625ZM11.136 14.013C11.3002 13.9583 11.443 13.8525 11.5442 13.7121C11.6455 13.5717 11.7 13.4031 11.7 13.23H10.8C10.8 13.2143 10.8049 13.1989 10.8141 13.1862C10.8232 13.1734 10.8362 13.1638 10.851 13.1588L11.136 14.013ZM11.7 13.23V9.3105H10.8V13.23H11.7ZM14.4623 5.15175L11.1518 8.46225L11.7878 9.09825L15.0983 5.78775L14.4623 5.15175ZM14.55 3.75V4.9395H15.45V3.75H14.55ZM15.0983 5.78775C15.3233 5.56275 15.45 5.2575 15.45 4.9395H14.55C14.5501 4.97891 14.5423 5.01794 14.5273 5.05436C14.5122 5.09078 14.4902 5.12387 14.4623 5.15175L15.0983 5.78775ZM11.7 9.3105C11.7 9.27109 11.7078 9.23207 11.7228 9.19565C11.7379 9.15923 11.7599 9.12613 11.7878 9.09825L11.1518 8.46225C10.9267 8.68718 10.8002 8.9923 10.8 9.3105H11.7ZM6.2123 9.09825C6.24015 9.12613 6.26223 9.15923 6.27729 9.19565C6.29235 9.23207 6.30008 9.27109 6.30005 9.3105H7.20005C7.1999 8.9923 7.07338 8.68718 6.8483 8.46225L6.2123 9.09825ZM2.55005 4.9395C2.55005 5.2575 2.6768 5.56275 2.9018 5.78775L3.5378 5.15175C3.50995 5.12387 3.48786 5.09078 3.47281 5.05436C3.45775 5.01794 3.45002 4.97891 3.45005 4.9395H2.55005ZM14.25 3.45C14.415 3.45 14.55 3.585 14.55 3.75H15.45C15.45 3.43174 15.3236 3.12652 15.0986 2.90147C14.8735 2.67643 14.5683 2.55 14.25 2.55V3.45ZM3.75005 2.55C3.43179 2.55 3.12656 2.67643 2.90152 2.90147C2.67648 3.12652 2.55005 3.43174 2.55005 3.75H3.45005C3.45005 3.585 3.58505 3.45 3.75005 3.45V2.55Z" fill="#F8F8F8"/>
</svg>
