<svg width="16" height="17" viewBox="0 0 16 17" fill="none" xmlns="http://www.w3.org/2000/svg">
<path opacity="0.5" d="M1.33337 8.63599C1.33337 7.10999 1.33337 6.34733 1.68004 5.71533C2.02537 5.08266 2.65804 4.69066 3.92271 3.90533L5.25604 3.07799C6.59271 2.24799 7.26137 1.83333 8.00004 1.83333C8.73871 1.83333 9.40671 2.24799 10.744 3.07799L12.0774 3.90533C13.342 4.69066 13.9747 5.08266 14.3207 5.71533C14.6667 6.34733 14.6667 7.10999 14.6667 8.63533V9.64999C14.6667 12.25 14.6667 13.5507 13.8854 14.3587C13.1047 15.1667 11.8474 15.1667 9.33337 15.1667H6.66671C4.15271 15.1667 2.89537 15.1667 2.11471 14.3587C1.33337 13.5507 1.33337 12.2507 1.33337 9.64999V8.63599Z" fill="#F8F8F8"/>
<path d="M8.5 7.83333C8.5 7.70072 8.44732 7.57354 8.35355 7.47978C8.25978 7.38601 8.13261 7.33333 8 7.33333C7.86739 7.33333 7.74022 7.38601 7.64645 7.47978C7.55268 7.57354 7.5 7.70072 7.5 7.83333V9.33333H6C5.86739 9.33333 5.74022 9.38601 5.64645 9.47978C5.55268 9.57354 5.5 9.70072 5.5 9.83333C5.5 9.96594 5.55268 10.0931 5.64645 10.1869C5.74022 10.2806 5.86739 10.3333 6 10.3333H7.5V11.8333C7.5 11.9659 7.55268 12.0931 7.64645 12.1869C7.74022 12.2807 7.86739 12.3333 8 12.3333C8.13261 12.3333 8.25978 12.2807 8.35355 12.1869C8.44732 12.0931 8.5 11.9659 8.5 11.8333V10.3333H10C10.1326 10.3333 10.2598 10.2806 10.3536 10.1869C10.4473 10.0931 10.5 9.96594 10.5 9.83333C10.5 9.70072 10.4473 9.57354 10.3536 9.47978C10.2598 9.38601 10.1326 9.33333 10 9.33333H8.5V7.83333Z" fill="#F8F8F8"/>
</svg>
