<svg width="24" height="24" viewBox="0 0 24 24" fill="none" xmlns="http://www.w3.org/2000/svg">
<path opacity="0.5" d="M12 22C6.477 22 2 17.523 2 12C2 6.477 6.477 2 12 2C17.523 2 22 6.477 22 12C22 17.523 17.523 22 12 22Z" fill="#85B6FF"/>
<path d="M10.47 8.47C10.5387 8.39631 10.6215 8.33721 10.7135 8.29622C10.8055 8.25523 10.9048 8.23319 11.0055 8.23141C11.1062 8.22963 11.2062 8.24816 11.2996 8.28588C11.393 8.3236 11.4778 8.37974 11.549 8.45096C11.6203 8.52218 11.6764 8.60702 11.7141 8.7004C11.7519 8.79379 11.7704 8.89382 11.7686 8.99452C11.7668 9.09523 11.7448 9.19454 11.7038 9.28654C11.6628 9.37854 11.6037 9.46134 11.53 9.53L9.81001 11.25H16C16.1989 11.25 16.3897 11.329 16.5303 11.4697C16.671 11.6103 16.75 11.8011 16.75 12C16.75 12.1989 16.671 12.3897 16.5303 12.5303C16.3897 12.671 16.1989 12.75 16 12.75H9.81001L11.53 14.47C11.6037 14.5387 11.6628 14.6215 11.7038 14.7135C11.7448 14.8055 11.7668 14.9048 11.7686 15.0055C11.7704 15.1062 11.7519 15.2062 11.7141 15.2996C11.6764 15.393 11.6203 15.4778 11.549 15.549C11.4778 15.6203 11.393 15.6764 11.2996 15.7141C11.2062 15.7518 11.1062 15.7704 11.0055 15.7686C10.9048 15.7668 10.8055 15.7448 10.7135 15.7038C10.6215 15.6628 10.5387 15.6037 10.47 15.53L7.47001 12.53C7.32956 12.3894 7.25067 12.1988 7.25067 12C7.25067 11.8013 7.32956 11.6106 7.47001 11.47L10.47 8.47Z" fill="#85B6FF"/>
</svg>
